<svg id="Layer_1" data-name="Layer 1" xmlns="http://www.w3.org/2000/svg" xmlns:xlink="http://www.w3.org/1999/xlink" viewBox="0 0 133.5 147.59"><defs><style>.cls-1,.cls-7{fill:#fff;}.cls-2{clip-path:url(#clip-path);}.cls-3{fill:#d5a172;stroke-width:2px;}.cls-3,.cls-6,.cls-7{stroke:#4e4e56;stroke-miterlimit:10;}.cls-4{fill:#b7e294;}.cls-5{fill:#4e4e56;}.cls-6{fill:none;}.cls-6,.cls-7{stroke-width:4px;}</style><clipPath id="clip-path" transform="translate(-423.89 -417.35)"><circle class="cls-1" cx="490.89" cy="471.35" r="51.5"/></clipPath></defs><title>bm-logo</title><circle class="cls-1" cx="67" cy="54" r="51.5"/><g class="cls-2"><rect class="cls-3" x="60" y="61" width="18" height="50.5"/><path class="cls-4" d="M458.36,456.92a13.43,13.43,0,0,1-.69-3.23,13.67,13.67,0,0,1,12.42-14.82,13.49,13.49,0,0,1,4.41.33,13.67,13.67,0,0,1,26.36-2.58,13.43,13.43,0,0,1,3.49-.78,13.67,13.67,0,0,1,14.82,12.42,13.24,13.24,0,0,1-.07,3,13.67,13.67,0,0,1,2.54,25.59,12.69,12.69,0,0,1,.18,1.29,13.67,13.67,0,0,1-12.42,14.82,13.39,13.39,0,0,1-3.82-.2,13.67,13.67,0,0,1-26,2,13.67,13.67,0,0,1-19.32-11.22,12.77,12.77,0,0,1,0-1.66,13.67,13.67,0,0,1-1.91-25Z" transform="translate(-423.89 -417.35)"/><path class="cls-5" d="M458.22,456.86s-.07,0-.09-.11l-.08-.22-.15-.44q-.15-.44-.26-.89a10.34,10.34,0,0,1-.32-1.84,14.47,14.47,0,0,1,.1-3.76,14,14,0,0,1,3.2-6.85,14.33,14.33,0,0,1,6.37-4.29,14.69,14.69,0,0,1,7.77-.39l-1.4.93A14.81,14.81,0,0,1,496,428.58a14.6,14.6,0,0,1,5.94,7.63l-1.5-.7a14.58,14.58,0,0,1,7.47-.51,14.36,14.36,0,0,1,6.66,3.17,14.53,14.53,0,0,1,5,13.12l-.36-.53a14.45,14.45,0,0,1,9,20.77,14.62,14.62,0,0,1-6.23,6.1l.5-1a15.18,15.18,0,0,1-.25,7.07,14.93,14.93,0,0,1-3.6,6.16,15.35,15.35,0,0,1-6.13,3.78,14.84,14.84,0,0,1-7.24.44l1.64-1a15.18,15.18,0,0,1-13.47,11.71,15.13,15.13,0,0,1-15.3-9.4l2.12.84a15.12,15.12,0,0,1-7.55,1.28,14.78,14.78,0,0,1-7.18-2.56,15.26,15.26,0,0,1-5-5.71,15.1,15.1,0,0,1-1.51-7.37l.8,1.18a14.56,14.56,0,0,1-9.49-12.94,13.85,13.85,0,0,1,2-7.93,14.14,14.14,0,0,1,2.58-3.15l.77-.65.82-.59.86-.53Zm.28.11c-.28.2-.58.41-.89.61l-.78.59-.73.64-.68.68a13.23,13.23,0,0,0-3.5,10.48,12.74,12.74,0,0,0,8.74,10.79l.82.27v.92a12.69,12.69,0,0,0,1.5,6,12.29,12.29,0,0,0,10,6.45,12,12,0,0,0,6-1.11l1.47-.71.65,1.55a12.37,12.37,0,0,0,4.86,5.69,12.22,12.22,0,0,0,18.26-7.45l.33-1.34,1.31.29a12.58,12.58,0,0,0,5.92-.22,12.82,12.82,0,0,0,5.19-3A12.8,12.8,0,0,0,520.74,477l-.1-.72.6-.27a12.88,12.88,0,0,0,4.51-20.13,12.94,12.94,0,0,0-6.77-4.17l-.42-.1.06-.43a12.69,12.69,0,0,0-5-11.77,12.67,12.67,0,0,0-6-2.46,12.45,12.45,0,0,0-6.34.77l-1.05.43-.45-1.13a12.74,12.74,0,0,0-5.17-6.18A12.56,12.56,0,0,0,486.8,429a12.28,12.28,0,0,0-7.32,3.27,12.49,12.49,0,0,0-3.86,7.1l-.21,1.26-1.19-.32a12.84,12.84,0,0,0-6.66.05,13.06,13.06,0,0,0-5.8,3.46,13.35,13.35,0,0,0-3.38,6,13.64,13.64,0,0,0-.39,3.51,11.71,11.71,0,0,0,.13,1.78q.06.44.16.89l.1.44.06.22A1.44,1.44,0,0,1,458.5,457Z" transform="translate(-423.89 -417.35)"/></g><circle class="cls-6" cx="66.5" cy="53.5" r="51.5"/><rect class="cls-7" x="2" y="95.09" width="129.5" height="50.5"/><path class="cls-5" d="M435.39,519.19h12.16c6.69,0,11.6,3.91,11.6,10,0,4.18-2,7-5,8.42a9.35,9.35,0,0,1,6.08,9.15c0,6.36-5.19,10.38-12.27,10.38H435.39Zm12.16,6.08h-5.8v9.32h5.8c2.79,0,5.08-1.39,5.08-4.63S450.34,525.27,447.55,525.27Zm.45,15.45h-6.25V551H448c3.18,0,5.75-1.62,5.75-5.13S451.18,540.72,448,540.72Z" transform="translate(-423.89 -417.35)"/><path class="cls-5" d="M476.07,534.41l-.22-.28c-1.38-1.76-2.81-4-2.81-6.49,0-4.73,3.8-8.47,9.35-8.47,5.72,0,9,3.91,9,8.58s-3.14,7-6.82,8.8l6,7.21,9.35-10.23v8.31l-5.67,6.38,7.48,8.91h-7.54l-3.8-4.68c-2.92,2.81-6.71,5.28-11.39,5.28-8.31,0-12.21-5.83-12.21-11.28C466.83,539.52,471.39,536.5,476.07,534.41Zm10.78,13.48-7.32-9.08C476,540.4,473,542.22,473,546a5.91,5.91,0,0,0,6,5.94C481.79,552,484.6,550.08,486.85,547.88Zm-5.78-15.57c2.59-1.1,4.46-2.31,4.46-4.35a3.11,3.11,0,0,0-3.14-3.36,3.28,3.28,0,0,0-3.52,3.36c0,1.49,1,2.86,2,4.13Z" transform="translate(-423.89 -417.35)"/><path class="cls-5" d="M523.46,557.13l-10.54-26.28v26.28h-6.36V519.19h7.7l12,29.85,12-29.85h7.64v37.93h-6.36V530.85L529,557.13Z" transform="translate(-423.89 -417.35)"/></svg>