<svg id="Layer_1" data-name="Layer 1" xmlns="http://www.w3.org/2000/svg" viewBox="0 0 133.5 164.29"><defs><style>.cls-1{fill:none;}.cls-2{fill:#fff;}</style></defs><title>bm-white-logo</title><path class="cls-1" d="M502.89,476.35v18.29a12.11,12.11,0,0,0,1.33-3.22l.33-1.34,1.31.29a12.58,12.58,0,0,0,5.92-.22,12.82,12.82,0,0,0,5.19-3A12.79,12.79,0,0,0,520.74,476l-.1-.72.6-.27a12.88,12.88,0,0,0,4.51-20.13,12.94,12.94,0,0,0-6.77-4.17l-.42-.1.06-.43a12.69,12.69,0,0,0-5-11.77,12.66,12.66,0,0,0-6-2.46,12.45,12.45,0,0,0-6.34.77l-1.05.43-.45-1.13a12.74,12.74,0,0,0-5.17-6.18A12.56,12.56,0,0,0,486.8,428a12.28,12.28,0,0,0-7.32,3.27,12.49,12.49,0,0,0-3.86,7.1l-.21,1.26-1.19-.32a12.84,12.84,0,0,0-6.66.05,13.06,13.06,0,0,0-5.8,3.46,13.35,13.35,0,0,0-3.38,6,13.64,13.64,0,0,0-.39,3.51,11.71,11.71,0,0,0,.13,1.78q.06.44.16.89l.1.44.06.22a1.43,1.43,0,0,1,.06.32c-.28.2-.58.41-.89.61l-.78.59-.73.64-.68.68a13.23,13.23,0,0,0-3.5,10.48,12.74,12.74,0,0,0,8.74,10.79l.82.27v.92a12.68,12.68,0,0,0,1.5,6,12.29,12.29,0,0,0,10,6.45,12,12,0,0,0,6-1.11l1.47-.71.65,1.55a12.43,12.43,0,0,0,1.8,3V476.35Z" transform="translate(-423.89 -417.35)"/><path class="cls-1" d="M484.89,501.94v24.91h16v-25.8a15.22,15.22,0,0,1-7.42,2.72A14.9,14.9,0,0,1,484.89,501.94Z" transform="translate(-423.89 -417.35)"/><path class="cls-1" d="M484.89,478.35v19.77a11.86,11.86,0,0,0,1.06.75,12.24,12.24,0,0,0,14.24-1q.36-.3.7-.63V478.35Z" transform="translate(-423.89 -417.35)"/><path class="cls-2" d="M500.89,500.21V513h-16V500.65l-.62-.17c-.48-.15-.94-.31-1.38-.48v14h20V499.38l-.76.36C501.73,499.9,501.32,500.06,500.89,500.21Z" transform="translate(-423.89 -417.35)"/><path class="cls-2" d="M459.07,480.85c0,.28,0,.56,0,.84.27.12.54.23.82.34Z" transform="translate(-423.89 -417.35)"/><path class="cls-2" d="M478.16,494.38a14.25,14.25,0,0,0,.66,1.41,14.09,14.09,0,0,0,1.47-.57Z" transform="translate(-423.89 -417.35)"/><path class="cls-2" d="M519.57,450.31c0-.14,0-.27,0-.41l-.41-.12Z" transform="translate(-423.89 -417.35)"/><path class="cls-2" d="M502,435.22c-.11-.35-.24-.69-.38-1-.37.09-.75.2-1.12.33Z" transform="translate(-423.89 -417.35)"/><path class="cls-2" d="M474.77,437.09c-.39-.09-.79-.16-1.19-.22-.08.38-.15.76-.21,1.15Z" transform="translate(-423.89 -417.35)"/><path class="cls-2" d="M505.3,493.11c.43.08.86.14,1.3.18.13-.41.25-.82.34-1.23Z" transform="translate(-423.89 -417.35)"/><path class="cls-2" d="M522,476.64c.2-.1.39-.22.59-.33,0-.22,0-.44-.09-.66Z" transform="translate(-423.89 -417.35)"/><path class="cls-2" d="M529.86,462.09a14.35,14.35,0,0,0-10.24-12.2c0,.14,0,.28,0,.41l-.36-.53.41.12a14.79,14.79,0,0,0-.84-6.75,14.63,14.63,0,0,0-4.2-6,14.36,14.36,0,0,0-6.66-3.17,14.66,14.66,0,0,0-6.35.18c.14.34.27.68.38,1l-1.5-.7c.37-.13.74-.23,1.12-.33a14.64,14.64,0,0,0-15-8.86,14.75,14.75,0,0,0-13,11.54c.4.06.79.12,1.19.22l-1.4.93c.05-.39.12-.77.21-1.15a15,15,0,0,0-6.59.61,14.33,14.33,0,0,0-6.37,4.29,14,14,0,0,0-3.2,6.85,14.47,14.47,0,0,0-.1,3.76,10.35,10.35,0,0,0,.32,1.84q.12.45.26.89l.15.44.08.22c0,.06,0,.06.09.11l-.82.38-.86.53-.82.59-.77.65a14.14,14.14,0,0,0-2.58,3.15,13.85,13.85,0,0,0-2,7.93,14.55,14.55,0,0,0,8.67,12.6c0-.28,0-.56,0-.84l.8,1.18c-.28-.1-.55-.22-.82-.34a14.83,14.83,0,0,0,6.51,12.24,14.78,14.78,0,0,0,7.18,2.56,15.37,15.37,0,0,0,6.08-.71,14.25,14.25,0,0,1-.66-1.41l2.12.84a14.09,14.09,0,0,1-1.47.57,15,15,0,0,0,4.07,4.84v-4.47a12.43,12.43,0,0,1-1.8-3l-.65-1.55-1.47.71a12,12,0,0,1-6,1.11A12.29,12.29,0,0,1,463,487a12.68,12.68,0,0,1-1.5-6V480l-.82-.27A12.74,12.74,0,0,1,451.92,469a13.23,13.23,0,0,1,3.5-10.48l.68-.68.73-.64.78-.59c.31-.2.61-.41.89-.61a1.43,1.43,0,0,0-.06-.32l-.06-.22-.1-.44q-.09-.44-.16-.89a11.71,11.71,0,0,1-.13-1.78,13.64,13.64,0,0,1,.39-3.51,13.35,13.35,0,0,1,3.38-6,13.06,13.06,0,0,1,5.8-3.46,12.84,12.84,0,0,1,6.66-.05l1.19.32.21-1.26a12.49,12.49,0,0,1,3.86-7.1A12.28,12.28,0,0,1,486.8,428a12.56,12.56,0,0,1,7.78,1.84,12.74,12.74,0,0,1,5.17,6.18l.45,1.13,1.05-.43a12.45,12.45,0,0,1,6.34-.77,12.66,12.66,0,0,1,6,2.46,12.69,12.69,0,0,1,5,11.77l-.06.43.42.1a12.94,12.94,0,0,1,6.77,4.17A12.89,12.89,0,0,1,521.24,475l-.6.27.1.72A12.79,12.79,0,0,1,517,487.18a12.82,12.82,0,0,1-5.19,3,12.58,12.58,0,0,1-5.92.22l-1.31-.29-.33,1.34a12.11,12.11,0,0,1-1.33,3.22v4.73a15.21,15.21,0,0,0,3.71-6.08c-.43,0-.87-.1-1.3-.18l1.64-1c-.09.42-.21.83-.34,1.23a15,15,0,0,0,5.94-.62,15.35,15.35,0,0,0,6.13-3.78,14.93,14.93,0,0,0,3.6-6.16,15.13,15.13,0,0,0,.35-6.41c-.2.11-.39.23-.59.33l.5-1c0,.22.06.44.09.66a14.44,14.44,0,0,0,7.25-14.22Z" transform="translate(-423.89 -417.35)"/><path class="cls-2" d="M493.22,500.65a12.22,12.22,0,0,1-7.27-1.78,11.86,11.86,0,0,1-1.06-.75v3.82a14.9,14.9,0,0,0,8.58,1.83,15.22,15.22,0,0,0,7.42-2.72v-3.84q-.34.33-.7.63A12.12,12.12,0,0,1,493.22,500.65Z" transform="translate(-423.89 -417.35)"/><path class="cls-2" d="M484.89,501.94v-3.82a12.3,12.3,0,0,1-2-2v4.47a15,15,0,0,0,1.38,1C484.47,501.72,484.68,501.83,484.89,501.94Z" transform="translate(-423.89 -417.35)"/><path class="cls-2" d="M500.89,497.21v3.84a14.64,14.64,0,0,0,1.24-1c.26-.23.51-.47.76-.72v-4.73A12.32,12.32,0,0,1,500.89,497.21Z" transform="translate(-423.89 -417.35)"/><path class="cls-2" d="M454.19,537.6c3-1.45,5-4.24,5-8.42,0-6.08-4.91-10-11.6-10H435.39v37.93H448c7.08,0,12.27-4,12.27-10.38A9.35,9.35,0,0,0,454.19,537.6Zm-12.44-12.33h5.8c2.79,0,5.08,1.51,5.08,4.69s-2.29,4.63-5.08,4.63h-5.8ZM448,551h-6.25V540.72H448c3.18,0,5.75,1.62,5.75,5.19S451.18,551,448,551Z" transform="translate(-423.89 -417.35)"/><path class="cls-2" d="M499.94,541.83v-8.31l-9.35,10.23-6-7.21c3.69-1.76,6.82-4.07,6.82-8.8s-3.3-8.58-9-8.58c-5.56,0-9.35,3.74-9.35,8.47,0,2.53,1.43,4.73,2.81,6.49l.22.28c-4.68,2.09-9.24,5.12-9.24,12,0,5.45,3.91,11.28,12.21,11.28,4.68,0,8.47-2.48,11.39-5.28l3.8,4.68h7.54l-7.48-8.91ZM482.4,524.62a3.11,3.11,0,0,1,3.14,3.36c0,2-1.87,3.25-4.46,4.35l-.17-.22c-1-1.27-2-2.64-2-4.13A3.28,3.28,0,0,1,482.4,524.62ZM479,552a5.91,5.91,0,0,1-6-5.94c0-3.8,3-5.61,6.55-7.21l7.32,9.08C484.6,550.08,481.79,552,479,552Z" transform="translate(-423.89 -417.35)"/><polygon class="cls-2" points="102.36 131.68 90.37 101.84 82.67 101.84 82.67 139.77 89.03 139.77 89.03 113.5 99.57 139.77 105.15 139.77 115.69 113.5 115.69 139.77 122.05 139.77 122.05 101.84 114.41 101.84 102.36 131.68"/><path class="cls-2" d="M527.42,510.44a54,54,0,1,0-74.61-1.52q.77.78,1.57,1.52H423.89v54.5h133.5v-54.5Zm-86.53-39.59a49.75,49.75,0,1,1,80.27,39.65H460.61a50.09,50.09,0,0,1-5-4.41A49.14,49.14,0,0,1,440.89,470.85Zm112.5,90.09H427.89v-46.5H451.5v.06h87v-.06h14.89Z" transform="translate(-423.89 -417.35)"/><path class="cls-2" d="M480.52,568.22h-2v13.24h7.39v-2h-5.35Zm-1,12.24V569.22l0,11.24Z" transform="translate(-423.89 -417.35)"/><path class="cls-2" d="M484.6,570.2H488v11.27h2V570.2h3.38v-2H484.6Zm4.42-1,0,11.24h0Z" transform="translate(-423.89 -417.35)"/><path class="cls-2" d="M499.16,568.22h-4.7v13.24h4.7a6.62,6.62,0,0,0,0-13.24Zm-3.7,12.24V569.22l0,11.24Zm3.68-1h-2.63v-9.3h2.63c2.63,0,4.4,1.87,4.4,4.65S501.77,579.49,499.14,579.49Zm1.92.69a5.83,5.83,0,0,0,0-10.67,5.78,5.78,0,0,1,0,10.67Z" transform="translate(-423.89 -417.35)"/><path class="cls-2" d="M507.51,578.88a1.38,1.38,0,1,0,1.38,1.38A1.37,1.37,0,0,0,507.51,578.88Zm0,1.76a.38.38,0,1,1,.38-.38A.36.36,0,0,1,507.51,580.65Z" transform="translate(-423.89 -417.35)"/></svg>