<?xml version="1.0" encoding="utf-8"?>
<!-- Generator: Adobe Illustrator 21.0.2, SVG Export Plug-In . SVG Version: 6.00 Build 0)  -->
<svg version="1.1" id="Layer_1" xmlns="http://www.w3.org/2000/svg" xmlns:xlink="http://www.w3.org/1999/xlink" x="0px" y="0px"
	 viewBox="0 0 1000 1000" style="enable-background:new 0 0 1000 1000;" xml:space="preserve">
<style type="text/css">
	.st0{clip-path:url(#SVGID_2_);}
	.st1{fill:#D5A172;stroke:#000000;stroke-width:2;stroke-miterlimit:10;}
	.st2{fill:#B7E294;}
	.st3{fill:none;stroke:#000000;stroke-width:4;stroke-miterlimit:10;}
	.st4{fill:#FFFFFF;stroke:#000000;stroke-width:4;stroke-miterlimit:10;}
	.st5{font-family:'NiveauGroteskMedium';}
	.st6{font-size:55.7874px;}
	.st7{letter-spacing:2;}
	.st8{font-size:55.0126px;}
</style>
<g>
	<g>
		<g>
			<defs>
				<circle id="SVGID_1_" cx="490.9" cy="471.4" r="51.5"/>
			</defs>
			<use xlink:href="#SVGID_1_"  style="overflow:visible;fill:#FFFFFF;"/>
			<clipPath id="SVGID_2_">
				<use xlink:href="#SVGID_1_"  style="overflow:visible;"/>
			</clipPath>
			<g class="st0">
				<rect x="483.9" y="478.4" class="st1" width="18" height="50.5"/>
				<g>
					<g>
						<path class="st2" d="M458.4,456.9c-0.4-1-0.6-2.1-0.7-3.2c-0.7-7.5,4.9-14.2,12.4-14.8c1.5-0.1,3,0,4.4,0.3
							c0.9-6.1,5.9-11,12.3-11.5c6.3-0.6,12,3.3,14.1,9c1.1-0.4,2.3-0.7,3.5-0.8c7.5-0.7,14.2,4.9,14.8,12.4c0.1,1,0.1,2-0.1,3
							c5.5,1.4,9.7,6.1,10.3,12c0.5,5.8-2.7,11.1-7.7,13.5c0.1,0.4,0.1,0.9,0.2,1.3c0.7,7.5-4.9,14.2-12.4,14.8
							c-1.3,0.1-2.6,0-3.8-0.2c-1.3,5.6-6.1,9.9-12.1,10.5c-6.1,0.5-11.6-3-13.8-8.4c-1.4,0.6-2.9,1.1-4.5,1.2
							c-7.5,0.7-14.2-4.9-14.8-12.4c0-0.6-0.1-1.1,0-1.7c-4.9-1.7-8.6-6.2-9.1-11.7C450.7,464.6,453.7,459.4,458.4,456.9z"/>
						<path d="M458.2,456.9c0,0-0.1,0-0.1-0.1l-0.1-0.2l-0.2-0.4c-0.1-0.3-0.2-0.6-0.3-0.9c-0.1-0.6-0.3-1.2-0.3-1.8
							c-0.1-1.2-0.1-2.5,0.1-3.8c0.4-2.5,1.5-4.9,3.2-6.8c1.7-2,3.9-3.5,6.4-4.3c2.5-0.8,5.2-1,7.8-0.4l-1.4,0.9
							c0.4-3.2,2-6.3,4.4-8.6c2.4-2.3,5.5-3.8,8.8-4.1c3.3-0.4,6.7,0.5,9.5,2.2c2.8,1.8,4.9,4.5,5.9,7.6l-1.5-0.7
							c2.4-0.8,5-1,7.5-0.5c2.5,0.4,4.8,1.6,6.7,3.2c1.9,1.6,3.3,3.7,4.2,6c0.8,2.3,1.1,4.8,0.8,7.2l-0.4-0.5
							c2.8,0.7,5.3,2.3,7.2,4.5c1.9,2.2,3.1,4.9,3.4,7.8c0.3,2.9-0.2,5.9-1.6,8.5c-1.4,2.6-3.6,4.7-6.2,6.1l0.5-1
							c0.5,2.3,0.4,4.8-0.3,7.1c-0.7,2.3-1.9,4.4-3.6,6.2c-1.7,1.7-3.8,3-6.1,3.8c-2.3,0.7-4.8,0.9-7.2,0.4l1.6-1
							c-0.7,3.1-2.4,5.9-4.8,8c-2.4,2.1-5.5,3.4-8.7,3.7c-3.2,0.3-6.5-0.5-9.2-2.2c-2.7-1.7-4.9-4.2-6.1-7.2l2.1,0.8
							c-2.4,1.1-5,1.5-7.5,1.3c-2.6-0.2-5.1-1.1-7.2-2.6c-2.1-1.4-3.8-3.4-5-5.7c-1.1-2.3-1.7-4.8-1.5-7.4l0.8,1.2
							c-2.7-1-5.1-2.8-6.7-5.1c-1.7-2.3-2.6-5.1-2.8-7.8c-0.2-2.8,0.6-5.6,2-7.9c0.7-1.2,1.6-2.2,2.6-3.1l0.8-0.7l0.8-0.6l0.9-0.5
							C457.7,457.1,457.9,457,458.2,456.9z M458.5,457c-0.3,0.2-0.6,0.4-0.9,0.6l-0.8,0.6l-0.7,0.6l-0.7,0.7c-0.9,0.9-1.6,2-2.2,3.1
							c-1.1,2.3-1.6,4.9-1.3,7.3c0.3,2.5,1.3,4.9,2.8,6.7c1.6,1.9,3.6,3.3,5.9,4.1l0.8,0.3l0,0.9c0,2.1,0.5,4.2,1.5,6
							c1,1.8,2.5,3.4,4.2,4.5c1.8,1.1,3.8,1.8,5.8,1.9c2.1,0.1,4.1-0.2,6-1.1l1.5-0.7l0.7,1.5c1,2.3,2.7,4.4,4.9,5.7
							c2.2,1.3,4.7,2,7.3,1.8c2.5-0.2,5-1.2,7-2.8c2-1.6,3.4-3.9,4-6.4l0.3-1.3l1.3,0.3c1.9,0.4,4,0.3,5.9-0.2
							c1.9-0.6,3.7-1.6,5.2-3c1.5-1.4,2.6-3.2,3.2-5.1c0.7-1.9,0.8-4,0.5-6.1l-0.1-0.7l0.6-0.3c2.4-1.1,4.4-2.9,5.8-5.2
							c1.4-2.3,2-5,1.8-7.7c-0.2-2.7-1.3-5.3-3.1-7.3c-1.7-2.1-4.2-3.5-6.8-4.2l-0.4-0.1l0.1-0.4c0.3-2.2-0.1-4.5-0.9-6.6
							c-0.9-2-2.3-3.9-4.1-5.2c-1.8-1.3-3.8-2.2-6-2.5c-2.1-0.3-4.4,0-6.3,0.8l-1.1,0.4l-0.4-1.1c-1-2.6-2.8-4.8-5.2-6.2
							c-2.3-1.5-5.1-2.1-7.8-1.8c-2.7,0.2-5.3,1.4-7.3,3.3c-2,1.8-3.4,4.4-3.9,7.1l-0.2,1.3l-1.2-0.3c-2.1-0.6-4.5-0.5-6.7,0.1
							c-2.2,0.6-4.2,1.8-5.8,3.5c-1.6,1.6-2.8,3.7-3.4,6c-0.3,1.1-0.4,2.3-0.4,3.5c0,0.6,0,1.2,0.1,1.8c0,0.3,0.1,0.6,0.2,0.9
							l0.1,0.4l0.1,0.2C458.5,456.7,458.5,456.9,458.5,457z"/>
					</g>
				</g>
			</g>
		</g>
		<circle class="st3" cx="490.4" cy="470.9" r="51.5"/>
	</g>
	<g>
		<rect x="425.9" y="512.4" class="st4" width="129.5" height="50.5"/>
		<text transform="matrix(1 0 0 1 430.8158 557.1252)"><tspan x="0" y="0" class="st5 st6 st7">B</tspan><tspan x="34.3" y="0" class="st5 st8">&amp;</tspan><tspan x="71.2" y="0" class="st5 st6">M</tspan></text>
	</g>
</g>
</svg>
