<svg id="Layer_1" data-name="Layer 1" xmlns="http://www.w3.org/2000/svg" viewBox="0 0 144 144.5"><defs><style>.cls-1{fill:#afcdf2;}.cls-2{fill:#b7e294;}.cls-3{fill:#736357;}.cls-4{fill:#d5a172;}.cls-5{fill:#4e4e56;}</style></defs><title>tree</title><path class="cls-1" d="M561.77,557c-.15.26-.31.5-.46.76Z" transform="translate(-428 -448)"/><path class="cls-1" d="M438.69,557.76c-.15-.25-.31-.5-.46-.76Z" transform="translate(-428 -448)"/><path class="cls-1" d="M491.53,551.5l.1-.21V525.62a15,15,0,0,1-4.06-4.84,15.37,15.37,0,0,1-6.08.71,14.78,14.78,0,0,1-7.18-2.56,14.83,14.83,0,0,1-6.51-12.24,14.55,14.55,0,0,1-8.67-12.6,13.85,13.85,0,0,1,2-7.93,14.15,14.15,0,0,1,2.58-3.15l.77-.65.82-.59.86-.53.82-.38s-.07,0-.09-.11l-.08-.22-.15-.44q-.15-.44-.26-.89a10.34,10.34,0,0,1-.32-1.84,14.47,14.47,0,0,1,.1-3.76,14,14,0,0,1,3.2-6.85,14.33,14.33,0,0,1,6.37-4.29,15,15,0,0,1,6.59-.61,14.81,14.81,0,0,1,22.43-9.29,14.73,14.73,0,0,1,5.56,6.61,14.66,14.66,0,0,1,6.35-.18,14.36,14.36,0,0,1,6.66,3.17,14.63,14.63,0,0,1,4.2,6,14.79,14.79,0,0,1,.84,6.75,14.44,14.44,0,0,1,3,26.42,15.13,15.13,0,0,1-.35,6.41,14.93,14.93,0,0,1-3.6,6.16,15.35,15.35,0,0,1-6.13,3.78,15,15,0,0,1-5.94.62,15.21,15.21,0,0,1-3.71,6.08V551.5h53q-1.26,2.66-2.73,5.2a72,72,0,1,0-123.88,0q-1.47-2.54-2.73-5.2Z" transform="translate(-428 -448)"/><path class="cls-2" d="M561.77,557l.17-.3q1.47-2.54,2.73-5.2h-53v.07A26.65,26.65,0,0,0,521.12,562h37.44c1-1.38,1.87-2.8,2.75-4.24C561.46,557.5,561.62,557.25,561.77,557Z" transform="translate(-428 -448)"/><path class="cls-2" d="M482.55,562a27,27,0,0,0,9-10.5H435.33q1.26,2.66,2.73,5.2l.17.3c.15.26.31.5.46.76.87,1.45,1.78,2.87,2.75,4.24Z" transform="translate(-428 -448)"/><path class="cls-3" d="M524.72,573.48a26.77,26.77,0,0,1-15.11-8.72c.5,4.91,2,14,6,18l.59.59,5.69,5.69a71.56,71.56,0,0,0,32.71-21.93C549.47,569.28,534.13,575.2,524.72,573.48Z" transform="translate(-428 -448)"/><path class="cls-3" d="M487.29,583.29c4-4,5.5-13.12,6-18A26.78,26.78,0,0,1,478.18,574c-11.18,2-30.75-6.7-31.58-7.07l-2.22-1a71.53,71.53,0,0,0,36.35,23.94Z" transform="translate(-428 -448)"/><path class="cls-3" d="M447.18,565c.17,0,16.92,2.92,28.57,0a21.58,21.58,0,0,0,6.8-3H441.44c.54.78,1.1,1.54,1.67,2.3Z" transform="translate(-428 -448)"/><path class="cls-3" d="M501.61,573.67c-4.71,7.47-13,13.78-17.69,17a71.4,71.4,0,0,0,34.84-.66C514,586.75,506.27,580.76,501.61,573.67Z" transform="translate(-428 -448)"/><path class="cls-3" d="M521.12,562a21.6,21.6,0,0,0,6,2.53c11.65,2.91,28.4,0,28.57,0l1.16-.21c.58-.76,1.14-1.53,1.68-2.31Z" transform="translate(-428 -448)"/><path class="cls-4" d="M526.66,566.47c-10.52-2.63-15.62-11.55-16.93-14.22l-.1-.21v-26a15.22,15.22,0,0,1-7.42,2.72,14.9,14.9,0,0,1-8.58-1.84v24.75l-.07.18c-.2.49-5,12-17.31,15.1-7,1.74-15.44,1.52-21.51,1,6.73,2.39,16.61,5.23,23.09,4,10.44-1.9,15.81-10.46,15.87-10.54l2-3.21-.13,3.77c0,.65-.59,15.5-6.27,22.07,4.2-3.49,8.75-8,11.45-12.85l.85-1.54.88,1.52c2.73,4.68,7.12,9,11.19,12.38-5.69-6.56-6.26-21.43-6.28-22.08l-.13-3.75,2,3.19c.05.09,5.46,8.65,15.87,10.54,6.48,1.18,16.37-1.66,23.09-4.05C542.1,568,533.62,568.21,526.66,566.47Z" transform="translate(-428 -448)"/><path class="cls-5" d="M555.72,564.52c-.17,0-16.92,2.93-28.57,0a21.6,21.6,0,0,1-6-2.53,26.65,26.65,0,0,1-9.49-10.43v-27.2a15.21,15.21,0,0,0,3.71-6.08,15,15,0,0,0,5.94-.62,15.35,15.35,0,0,0,6.13-3.78,14.93,14.93,0,0,0,3.6-6.16,15.13,15.13,0,0,0,.35-6.41,14.44,14.44,0,0,0,7.25-14.22,14.36,14.36,0,0,0-10.24-12.2,14.79,14.79,0,0,0-.84-6.75,14.63,14.63,0,0,0-4.2-6,14.36,14.36,0,0,0-6.66-3.17,14.66,14.66,0,0,0-6.35.18,14.64,14.64,0,0,0-15-8.86,14.75,14.75,0,0,0-13,11.54,15,15,0,0,0-6.59.61,14.33,14.33,0,0,0-6.37,4.29,14,14,0,0,0-3.2,6.85,14.47,14.47,0,0,0-.1,3.76,10.34,10.34,0,0,0,.32,1.84q.12.45.26.89l.15.44.08.22c0,.06,0,.06.09.11l-.82.38-.86.53-.82.59-.77.65a14.15,14.15,0,0,0-2.58,3.15,13.85,13.85,0,0,0-2,7.93,14.55,14.55,0,0,0,8.67,12.6,14.83,14.83,0,0,0,6.51,12.24,14.78,14.78,0,0,0,7.18,2.56,15.37,15.37,0,0,0,6.08-.71,15,15,0,0,0,4.06,4.84v25.67l-.1.21a27,27,0,0,1-9,10.5,21.58,21.58,0,0,1-6.8,3c-11.65,2.91-28.41,0-28.57,0l-4.07-.72q.62.82,1.27,1.62l2.22,1c.83.37,20.4,9.11,31.58,7.07a26.78,26.78,0,0,0,15.11-8.72c-.5,4.91-2,14-6,18l-6.56,6.56q1.58.44,3.18.81c4.7-3.21,13-9.53,17.69-17,4.66,7.09,12.42,13.08,17.15,16.33q1.58-.43,3.13-.92l-5.69-5.69-.59-.59c-4-4-5.49-13.12-6-18a26.77,26.77,0,0,0,15.11,8.72c9.4,1.71,24.75-4.2,29.88-6.34q1.17-1.39,2.28-2.83Zm-65.88-46.34-.65-1.55-1.47.71a12,12,0,0,1-6,1.11,12.29,12.29,0,0,1-10-6.45,12.69,12.69,0,0,1-1.5-6V505l-.82-.27A12.74,12.74,0,0,1,460.66,494a13.23,13.23,0,0,1,3.5-10.48l.68-.68.73-.64.78-.59c.31-.2.61-.41.89-.61a1.43,1.43,0,0,0-.06-.32l-.06-.22L467,480q-.09-.44-.16-.89a11.72,11.72,0,0,1-.13-1.78,13.64,13.64,0,0,1,.39-3.51,13.35,13.35,0,0,1,3.38-6,13.06,13.06,0,0,1,5.8-3.46,12.84,12.84,0,0,1,6.66-.05l1.19.32.21-1.26a12.49,12.49,0,0,1,3.86-7.1,12.28,12.28,0,0,1,7.32-3.27,12.56,12.56,0,0,1,7.78,1.84,12.74,12.74,0,0,1,5.17,6.18l.45,1.13,1.05-.43a12.45,12.45,0,0,1,6.34-.77,12.66,12.66,0,0,1,6,2.46,12.69,12.69,0,0,1,5,11.77l-.06.43.42.1a12.94,12.94,0,0,1,6.77,4.17A12.89,12.89,0,0,1,530,500l-.6.27.1.72a12.8,12.8,0,0,1-3.78,11.18,12.82,12.82,0,0,1-5.19,3,12.58,12.58,0,0,1-5.92.22l-1.31-.29-.33,1.34a12.28,12.28,0,0,1-4,6.42,12.24,12.24,0,0,1-14.24,1A12.37,12.37,0,0,1,489.84,518.18Zm35.24,53.34c-10.41-1.89-15.81-10.46-15.87-10.54l-2-3.19.13,3.75c0,.65.59,15.52,6.28,22.08-4.07-3.38-8.46-7.7-11.19-12.38l-.88-1.52-.85,1.54c-2.7,4.86-7.25,9.36-11.45,12.85,5.69-6.57,6.25-21.42,6.27-22.07l.13-3.77-2,3.21c-.05.09-5.43,8.64-15.87,10.54-6.48,1.18-16.36-1.66-23.09-4,6.07.52,14.55.74,21.51-1,12.35-3.09,17.12-14.61,17.31-15.1l.07-.18V526.94a14.9,14.9,0,0,0,8.58,1.84,15.22,15.22,0,0,0,7.42-2.72v26l.1.21c1.31,2.67,6.4,11.59,16.93,14.22,7,1.74,15.45,1.52,21.51,1C541.44,569.86,531.56,572.69,525.08,571.52Z" transform="translate(-428 -448)"/><path class="cls-2" d="M494.7,523.87A12.22,12.22,0,0,0,513,516.42l.33-1.34,1.31.29a12.58,12.58,0,0,0,5.92-.22,12.82,12.82,0,0,0,5.19-3A12.8,12.8,0,0,0,529.49,501l-.1-.72.6-.27a12.88,12.88,0,0,0,4.51-20.13,12.94,12.94,0,0,0-6.77-4.17l-.42-.1.06-.43a12.69,12.69,0,0,0-5-11.77,12.66,12.66,0,0,0-6-2.46,12.45,12.45,0,0,0-6.34.77l-1.05.43-.45-1.13a12.74,12.74,0,0,0-5.17-6.18,12.56,12.56,0,0,0-7.78-1.84,12.28,12.28,0,0,0-7.32,3.27,12.49,12.49,0,0,0-3.86,7.1l-.21,1.26-1.19-.32a12.84,12.84,0,0,0-6.66.05,13.06,13.06,0,0,0-5.8,3.46,13.35,13.35,0,0,0-3.38,6,13.64,13.64,0,0,0-.39,3.51,11.72,11.72,0,0,0,.13,1.78q.06.44.16.89l.1.44.06.22a1.43,1.43,0,0,1,.06.32c-.28.2-.58.41-.89.61l-.78.59-.73.64-.68.68a13.23,13.23,0,0,0-3.5,10.48,12.74,12.74,0,0,0,8.74,10.79l.82.27v.92a12.69,12.69,0,0,0,1.5,6,12.29,12.29,0,0,0,10,6.45,12,12,0,0,0,6-1.11l1.47-.71.65,1.55A12.37,12.37,0,0,0,494.7,523.87Z" transform="translate(-428 -448)"/></svg>