<?xml version="1.0" encoding="iso-8859-1"?>
<!-- Generator: Adobe Illustrator 19.0.0, SVG Export Plug-In . SVG Version: 6.00 Build 0)  -->
<svg version="1.1" id="Layer_1" xmlns="http://www.w3.org/2000/svg" xmlns:xlink="http://www.w3.org/1999/xlink" x="0px" y="0px"
	 viewBox="0 0 512 512" style="enable-background:new 0 0 512 512;" xml:space="preserve">
<circle style="fill:#FF7F4F;" cx="256" cy="256" r="256"/>
<path style="fill:#F2542F;" d="M337.18,155.46c-21.766,32.983-62.049,18.182-94.972,26.412
	C176.7,197.387,185.32,287.03,168.081,343.919c-6.68,20.04-13.736,39.705-25.859,54.303L256,512l0,0
	c118.648,0,218.429-80.722,247.458-190.24L337.18,155.46z"/>
<g>
	<path style="fill:#FFFFFF;" d="M371.86,293.064c-2.857,0-5.172-2.315-5.172-5.172v-3.448c0-2.857,2.315-5.172,5.172-5.172
		s5.172,2.315,5.172,5.172v3.448C377.032,290.749,374.717,293.064,371.86,293.064z"/>
	<path style="fill:#FFFFFF;" d="M371.86,349.301c-2.857,0-5.172-2.315-5.172-5.172v-5.92c0-2.857,2.315-5.172,5.172-5.172
		s5.172,2.315,5.172,5.172v5.92C377.032,346.986,374.717,349.301,371.86,349.301z M371.86,321.183c-2.857,0-5.172-2.315-5.172-5.172
		v-5.92c0-2.857,2.315-5.172,5.172-5.172s5.172,2.315,5.172,5.172v5.92C377.032,318.867,374.717,321.183,371.86,321.183z"/>
	<path style="fill:#FFFFFF;" d="M371.86,374.949c-2.857,0-5.172-2.315-5.172-5.172v-3.448c0-2.857,2.315-5.172,5.172-5.172
		s5.172,2.315,5.172,5.172v3.448C377.032,372.634,374.717,374.949,371.86,374.949z"/>
	<path style="fill:#FFFFFF;" d="M358.279,264.595c-0.203,0-0.41-0.012-0.617-0.036c-2.838-0.336-4.861-2.91-4.524-5.746l0.407-3.424
		c0.336-2.836,2.91-4.868,5.746-4.524c2.838,0.336,4.861,2.91,4.524,5.746l-0.407,3.424
		C363.096,262.663,360.862,264.595,358.279,264.595z"/>
	<path style="fill:#FFFFFF;" d="M349.412,339.223c-0.203,0-0.41-0.012-0.617-0.036c-2.838-0.338-4.861-2.91-4.525-5.747l0.934-7.858
		c0.336-2.836,2.893-4.856,5.747-4.525c2.838,0.338,4.861,2.91,4.525,5.747l-0.934,7.858
		C354.228,337.291,351.996,339.223,349.412,339.223z M353.847,301.909c-0.203,0-0.409-0.012-0.615-0.036
		c-2.838-0.336-4.863-2.91-4.527-5.746l0.933-7.856c0.338-2.838,2.912-4.844,5.746-4.527c2.838,0.336,4.863,2.91,4.527,5.746
		l-0.933,7.856C358.664,299.977,356.43,301.909,353.847,301.909z"/>
	<path style="fill:#FFFFFF;" d="M345.507,372.107c-0.203,0-0.409-0.012-0.614-0.036c-2.838-0.336-4.863-2.91-4.529-5.744
		l0.405-3.424c0.334-2.838,2.931-4.846,5.744-4.529c2.838,0.336,4.863,2.91,4.529,5.744l-0.405,3.424
		C350.325,370.173,348.091,372.107,345.507,372.107z"/>
	<path style="fill:#FFFFFF;" d="M385.441,264.595c-2.584,0-4.818-1.932-5.13-4.563l-0.405-3.424
		c-0.334-2.836,1.691-5.408,4.529-5.744c2.81-0.34,5.408,1.689,5.744,4.529l0.405,3.424c0.334,2.836-1.691,5.408-4.529,5.744
		C385.85,264.583,385.645,264.595,385.441,264.595z"/>
	<path style="fill:#FFFFFF;" d="M394.307,339.223c-2.584,0-4.817-1.932-5.13-4.561l-0.933-7.858
		c-0.336-2.838,1.689-5.41,4.527-5.746c2.824-0.329,5.408,1.688,5.746,4.527l0.933,7.858c0.336,2.838-1.689,5.41-4.527,5.746
		C394.717,339.213,394.512,339.223,394.307,339.223z M389.873,301.909c-2.584,0-4.817-1.933-5.13-4.561l-0.933-7.856
		c-0.336-2.838,1.689-5.41,4.527-5.746c2.824-0.321,5.408,1.689,5.746,4.527l0.933,7.856c0.336,2.838-1.689,5.41-4.527,5.746
		C390.282,301.897,390.077,301.909,389.873,301.909z"/>
	<path style="fill:#FFFFFF;" d="M398.215,372.107c-2.582,0-4.817-1.932-5.129-4.561l-0.407-3.424
		c-0.338-2.838,1.688-5.41,4.523-5.746c2.831-0.341,5.41,1.688,5.746,4.524l0.407,3.424c0.338,2.838-1.688,5.41-4.523,5.746
		C398.626,372.095,398.419,372.107,398.215,372.107z"/>
</g>
<polygon style="fill:#273B7A;" points="398.222,243.502 398.222,271.946 341.333,271.946 "/>
<path style="fill:#366695;" d="M403.78,259.351L245,291.107c-5.094,1.019-9.845-2.877-9.845-8.071V231.21
	c0-4.546,3.686-8.232,8.232-8.232h158.78c4.546,0,8.232,3.686,8.232,8.232v20.07C410.396,255.204,407.628,258.582,403.78,259.351z"
	/>
<path style="fill:#273B7A;" d="M331.071,187.932h-88.083c-4.711,0-8.532-3.82-8.532-8.532v-17.986c0-4.711,3.82-8.532,8.532-8.532
	h88.083c4.711,0,8.532,3.82,8.532,8.532V179.4C339.603,184.111,335.784,187.932,331.071,187.932z"/>
<rect x="142.222" y="152.876" style="fill:#FFEDB5;" width="105.146" height="245.346"/>
<rect x="189.923" y="152.876" style="fill:#FEE187;" width="57.458" height="245.346"/>
<rect x="142.222" y="152.876" style="fill:#5180A8;" width="105.146" height="105.146"/>
<rect x="189.923" y="152.876" style="fill:#366695;" width="57.458" height="105.146"/>
<g>
</g>
<g>
</g>
<g>
</g>
<g>
</g>
<g>
</g>
<g>
</g>
<g>
</g>
<g>
</g>
<g>
</g>
<g>
</g>
<g>
</g>
<g>
</g>
<g>
</g>
<g>
</g>
<g>
</g>
</svg>
